<svg width="25" height="40" viewBox="0 0 25 40" fill="none" xmlns="http://www.w3.org/2000/svg">
<path fill-rule="evenodd" clip-rule="evenodd" d="M8.78546 12.4384C7.90304 14.8424 3.4404 17.6089 9.39774 20.7997C10.781 21.6231 12.5537 22.6531 12.3631 24.1599C12.2891 24.3519 12.4624 24.3788 12.5939 24.223C14.5548 21.9668 16.032 18.7572 13.6267 16.5949C12.3711 15.3782 9.39643 14.7147 9.07687 12.6372C9.14936 12.3525 8.82702 12.3257 8.78399 12.4399L8.78546 12.4384ZM12.527 0.00344351C12.7041 -0.0242087 12.9809 0.115362 12.8466 0.437862C12.629 0.889133 12.4557 1.45985 12.6128 1.85467C13.424 3.89602 17.4931 5.30612 19.4806 7.45481C22.9751 11.2607 18.8253 15.9342 16.2736 18.8888C16.1586 18.9856 16.0374 19.0208 15.9564 19.0028C15.8042 19.03 15.7065 18.9341 15.8158 18.7423C17.5965 15.1016 14.1048 14.1615 12.0232 12.6171C4.47188 7.11104 10.5956 3.64617 12.3146 0.0739648L12.3159 0.072493C12.349 0.0140797 12.4364 -0.00948267 12.527 0.00344351Z" fill="#485C6C"/>
<path fill-rule="evenodd" clip-rule="evenodd" d="M19.7771 25.0999L19.79 25.0488L20.4548 26.9169L19.8036 26.9262V26.9491H16.4111L15.5584 29.4498L9.03022 29.4725L8.10248 26.9491H4.74495V26.9261L4.09766 26.9169L4.76229 25.0488L4.77522 25.0999H19.7771Z" fill="#485C6C"/>
<path fill-rule="evenodd" clip-rule="evenodd" d="M1.95938 31.0667L1.962 31.0654H1.95938H1.962L5.17849 31.0936C6.77659 31.0505 7.99869 33.9004 5.93459 35.4314C8.68754 36.2009 7.69386 39.9303 5.48741 39.937L1.98752 39.9925V40H0V31.0667H1.95938ZM10.5424 31.0667L10.545 31.0654H10.5422H10.545L13.7613 31.0936C15.3594 31.0505 16.5815 33.9004 14.5174 35.4314C17.2705 36.2009 16.2767 39.9303 14.0702 39.937L10.5703 39.9925V40H8.58282V31.0667H10.5424ZM19.0324 31.0667L19.035 31.0654H19.0324H19.035L22.2515 31.0936C23.8496 31.0505 25.0717 33.9004 23.0076 35.4314C25.7606 36.2009 24.7669 39.9303 22.5604 39.937L19.0605 39.9925V40H17.073V31.0667H19.0324ZM1.98752 36.2943V38.3744L4.8159 38.398C5.88894 38.4288 5.95733 36.2626 4.84404 36.2424L1.98752 36.2943ZM19.0605 36.2943V38.3744L21.8889 38.398C22.962 38.4288 23.0304 36.2626 21.9171 36.2424L19.0605 36.2943ZM10.5703 36.2943V38.3744L13.3987 38.398C14.4718 38.4288 14.5401 36.2626 13.4269 36.2424L10.5703 36.2943ZM1.98752 32.6107V34.6201H4.4237C5.68605 34.6727 5.29401 32.6594 4.45184 32.6607L1.98752 32.6107ZM19.0605 32.6107V34.6201H21.4967C22.7591 34.6727 22.367 32.6594 21.5249 32.6607L19.0605 32.6107ZM10.5703 32.6107V34.6201H13.0065C14.2689 34.6727 13.8768 32.6594 13.0348 32.6607L10.5703 32.6107Z" fill="#485C6C"/>
</svg>
