<svg width="41" height="40" viewBox="0 0 41 40" fill="none" xmlns="http://www.w3.org/2000/svg">
<path fill-rule="evenodd" clip-rule="evenodd" d="M6.17566 30.8277H4.70251V31.4108H6.05551V31.9032H4.70251V32.6198H6.24103V33.1126H4.13433V30.3365H6.17566V30.8277ZM8.03854 32.3577L8.31702 32.62C8.22016 32.6696 8.11271 32.695 8.00388 32.6941C7.69053 32.6941 7.24956 32.5011 7.24956 31.7241C7.24956 30.9472 7.69053 30.7542 8.00388 30.7542C8.31702 30.7542 8.75758 30.9472 8.75758 31.7241C8.75758 31.9844 8.70736 32.1765 8.63017 32.3203L8.33632 32.046L8.03854 32.3577ZM9.34942 32.9989L9.04707 32.7144C9.21723 32.4975 9.33759 32.1807 9.33759 31.7243C9.33759 30.4218 8.37098 30.2636 8.00368 30.2636C7.63658 30.2636 6.67038 30.4218 6.67038 31.7243C6.67038 33.0277 7.63658 33.1855 8.00368 33.1855C8.16554 33.1855 8.45191 33.1552 8.71483 32.9991L9.04395 33.3133L9.34942 32.9989ZM12.0671 32.1421C12.0671 32.8717 11.6257 33.1852 10.9259 33.1852C10.6711 33.1852 10.2922 33.1236 10.0448 32.8493C9.89415 32.6804 9.83604 32.4542 9.82857 32.1765V30.3365H10.42V32.1373C10.42 32.5251 10.6441 32.6943 10.9143 32.6943C11.3129 32.6943 11.4748 32.5013 11.4748 32.1649V30.3365H12.0673V32.1421H12.0671ZM13.6203 30.963H13.6288L13.9723 32.0609H13.2638L13.6203 30.963ZM13.109 32.5388H14.1339L14.312 33.1128H14.9422L13.9648 30.3365H13.2955L12.3059 33.1128H12.9166L13.109 32.5388ZM15.9744 32.6102H17.3544V33.1126H15.3937V30.3365H15.9744V32.6102ZM19.5532 31.8667V33.1126H18.9742V30.3365H19.5532V31.3877H20.636V30.3365H21.2152V33.1126H20.636V31.8667H19.5532ZM22.3204 31.7241C22.3204 30.9472 22.7618 30.7542 23.0739 30.7542C23.3877 30.7542 23.8287 30.9472 23.8287 31.7241C23.8287 32.5011 23.3877 32.6941 23.0739 32.6941C22.7618 32.6941 22.3204 32.5011 22.3204 31.7241ZM21.7413 31.7241C21.7413 33.0275 22.7083 33.1852 23.0739 33.1852C23.4427 33.1852 24.4087 33.0275 24.4087 31.7241C24.4087 30.4215 23.4429 30.2634 23.0739 30.2634C22.7085 30.2634 21.7413 30.4215 21.7413 31.7241ZM27.1769 32.1421C27.1769 32.8717 26.7355 33.1852 26.0356 33.1852C25.7803 33.1852 25.4025 33.1236 25.1541 32.8493C25.0036 32.6804 24.9453 32.4542 24.9385 32.1765V30.3365H25.529V32.1373C25.529 32.5251 25.754 32.6943 26.0252 32.6943C26.4232 32.6943 26.5853 32.5013 26.5853 32.1649V30.3365H27.1771V32.1421H27.1769ZM28.238 32.2574C28.2432 32.4118 28.321 32.7061 28.8269 32.7061C29.1008 32.7061 29.4069 32.6405 29.4069 32.3458C29.4069 32.1302 29.1981 32.0715 28.9047 32.0022L28.6067 31.9325C28.1568 31.8283 27.7244 31.7291 27.7244 31.1182C27.7244 30.8086 27.8918 30.2634 28.792 30.2634C29.6433 30.2634 29.8709 30.8196 29.8751 31.1599H29.3177C29.3027 31.037 29.256 30.7424 28.7495 30.7424C28.5297 30.7424 28.2668 30.8235 28.2668 31.0748C28.2668 31.2925 28.4446 31.3371 28.5594 31.3643L29.2367 31.5305C29.6157 31.6237 29.963 31.7785 29.963 32.2767C29.963 33.1128 29.1131 33.1855 28.8692 33.1855C27.8572 33.1855 27.6833 32.6015 27.6833 32.2577H28.238V32.2574ZM31.0181 33.1126H30.4399V30.3365H31.0181V33.1126ZM33.3348 30.3365H33.8754V33.1126H33.2962L32.1642 31.1323H32.1544V33.1126H31.6138V30.3365H32.2246L33.325 32.2697H33.3348V30.3365ZM35.816 31.6162H36.9748V33.1126H36.589L36.5311 32.7648C36.3844 32.9333 36.1717 33.185 35.665 33.185C34.9966 33.185 34.3902 32.7059 34.3902 31.732C34.3902 30.975 34.8117 30.2591 35.7459 30.2632C36.5978 30.2632 36.9343 30.8152 36.9634 31.1995H36.3842C36.3842 31.091 36.1865 30.7424 35.7774 30.7424C35.3628 30.7424 34.9806 31.0281 34.9806 31.7391C34.9806 32.4973 35.3944 32.6941 35.7884 32.6941C35.9161 32.6941 36.3425 32.6447 36.4612 32.0833H35.816V31.6162ZM4.59086 35.9413C4.59086 35.1643 5.03142 34.9705 5.34415 34.9705C5.65729 34.9705 6.09764 35.1643 6.09764 35.9413C6.09764 36.7178 5.65729 36.9124 5.34415 36.9124C5.03142 36.9124 4.59086 36.7178 4.59086 35.9413ZM4.01106 35.9413C4.01106 37.2434 4.97726 37.4041 5.34435 37.4041C5.71166 37.4041 6.67785 37.2436 6.67785 35.9413C6.67785 34.6389 5.71145 34.4806 5.34435 34.4806C4.97726 34.4806 4.01106 34.6391 4.01106 35.9413ZM8.2666 35.8481V35.0317H8.72666C9.08587 35.0317 9.23694 35.1448 9.23694 35.4156C9.23694 35.5393 9.23694 35.8481 8.80365 35.8481H8.2666ZM8.2666 36.3283H8.93107C9.6775 36.3283 9.81612 35.6935 9.81612 35.4426C9.81612 34.8979 9.49219 34.5534 8.95431 34.5534H7.68701V37.3298H8.2666V36.3283ZM11.3897 35.8481V35.0317H11.849C12.2086 35.0317 12.3594 35.1448 12.3594 35.4156C12.3594 35.5393 12.3594 35.8481 11.9272 35.8481H11.3897ZM11.3897 36.3283H12.0546C12.8004 36.3283 12.9401 35.6935 12.9401 35.4426C12.9401 34.8979 12.6157 34.5534 12.0783 34.5534H10.8097V37.3298H11.3897V36.3283ZM14.39 35.9413C14.39 35.1643 14.8295 34.9705 15.1439 34.9705C15.4556 34.9705 15.8972 35.1643 15.8972 35.9413C15.8972 36.7178 15.4558 36.9124 15.1439 36.9124C14.8295 36.9124 14.39 36.7178 14.39 35.9413ZM13.81 35.9413C13.81 37.2434 14.776 37.4041 15.1439 37.4041C15.5102 37.4041 16.4764 37.2436 16.4764 35.9413C16.4764 34.6389 15.5102 34.4806 15.1439 34.4806C14.776 34.4806 13.81 34.6391 13.81 35.9413ZM18.0547 35.7751V35.0317H18.7767C19.117 35.0317 19.1822 35.2494 19.1822 35.3961C19.1822 35.6709 19.0359 35.7751 18.7341 35.7751H18.0547ZM17.4849 37.33H18.0547V36.2434H18.6528C19.0823 36.2434 19.106 36.3897 19.106 36.7686C19.106 37.054 19.1278 37.197 19.1666 37.33H19.8089V37.2551C19.6852 37.2092 19.6852 37.1083 19.6852 36.7039C19.6852 36.1843 19.5615 36.1 19.3336 35.9992C19.608 35.9072 19.762 35.6437 19.762 35.3389C19.762 35.0985 19.6275 34.5538 18.8889 34.5538H17.4847V37.33H17.4849ZM21.9224 37.33H21.3428V35.0448H20.5045V34.5536H22.7618V35.0448H21.9224V37.33ZM25.8735 36.3584C25.8735 37.0888 25.433 37.4041 24.7326 37.4041C24.4788 37.4041 24.0999 37.3395 23.8519 37.0656C23.701 36.8963 23.6431 36.6717 23.6363 36.3937V34.5536H24.2269V36.3544C24.2269 36.741 24.4514 36.9124 24.7218 36.9124C25.1198 36.9124 25.2819 36.7178 25.2819 36.3818V34.5534H25.8737V36.3584H25.8735ZM28.6793 34.5536H29.2216V37.33H28.6405L27.5077 35.3496H27.5015V37.33H26.9592V34.5536H27.57L28.6725 36.486H28.6793V34.5536ZM30.8574 37.33H30.2758V34.5536H30.8574V37.33ZM33.121 37.33H32.5414V35.0448H31.7041V34.5536H33.9604V35.0448H33.121V37.33ZM36.1524 37.33H35.5716V36.2818L34.6139 34.5536H35.2977L35.8735 35.7601L36.4239 34.5536H37.08L36.1524 36.2887V37.33ZM20.5426 1.41992L1.85352 10.6247V14.9485H3.94528V27.9187H36.9993V14.9485H39.5111V10.6247L20.5426 1.41992ZM32.9552 24.0124H7.98998V12.1589L20.5426 5.74373L32.9554 12.1589V24.0124H32.9552Z" fill="#485C6C"/>
<path fill-rule="evenodd" clip-rule="evenodd" d="M26.2597 16.3421H14.6851V12.1589H26.2597V16.3421ZM26.2597 22.3418H14.6851V18.156H26.2597V22.3418Z" fill="#485C6C"/>
</svg>
