<svg width="25" height="24" viewBox="0 0 25 24" fill="none" xmlns="http://www.w3.org/2000/svg">
<path d="M2.00624 0C1.27456 0 0.682129 0.592435 0.682129 1.32412V22.6759C0.682129 23.4074 1.27447 24 2.00624 24H13.5013V14.7079H10.3729V11.0848H13.5013V8.41324C13.5013 5.3134 15.3951 3.62604 18.1605 3.62604C19.4851 3.62604 20.6225 3.72451 20.9542 3.76865V7.00764H19.0364C17.5327 7.00764 17.2409 7.72251 17.2409 8.77119V11.0848H20.8291L20.3605 14.7079H17.2409V24H23.358C24.0894 24 24.6821 23.4075 24.6821 22.6759V1.32412C24.6821 0.592435 24.0895 0 23.358 0H2.00624Z" fill="#485C6C"/>
</svg>
