<svg width="25" height="24" viewBox="0 0 25 24" fill="none" xmlns="http://www.w3.org/2000/svg">
<path d="M2.45692 0C1.47738 0 0.682129 0.767744 0.682129 1.71716V22.2828C0.682129 23.2326 1.47738 24 2.45692 24H22.9073C23.8868 24 24.6821 23.2326 24.6821 22.2828V1.71716C24.6821 0.767744 23.8868 0 22.9073 0H2.45692ZM6.16784 4.02896C7.40796 4.02896 8.16781 4.83617 8.19136 5.89978C8.19136 6.93996 7.40507 7.7706 6.14096 7.7706H6.12083C4.90433 7.7706 4.11748 6.93996 4.11748 5.89978C4.11748 4.83617 4.92787 4.02896 6.16787 4.02896H6.16784ZM16.8569 9C19.2419 9 21.025 10.5481 21.025 13.8775V20.0913H17.4015V14.2918C17.4015 12.8346 16.8779 11.8396 15.5662 11.8396C14.5647 11.8396 13.966 12.5153 13.704 13.1626C13.6083 13.3942 13.5897 13.7139 13.5897 14.0379V20.0913H9.95943C9.95943 20.0913 10.007 10.271 9.95943 9.2539H13.5897V10.784C14.0716 10.0454 14.9348 9 16.8569 9ZM13.5897 10.784C13.5812 10.7968 13.571 10.8114 13.5628 10.8241H13.5897V10.784ZM4.33254 9.2539H7.95608V20.0913H4.33254V9.2539Z" fill="#485C6C"/>
</svg>
