<svg width="25" height="18" viewBox="0 0 25 18" fill="none" xmlns="http://www.w3.org/2000/svg">
<path d="M24.6821 2.13046C23.7996 2.49194 22.8505 2.73626 21.8546 2.84633C22.871 2.28369 23.6514 1.39321 24.019 0.332343C23.0678 0.853289 22.0144 1.23115 20.8924 1.43483C19.9947 0.551897 18.715 0 17.2989 0C14.5795 0 12.3755 2.03437 12.3755 4.54398C12.3755 4.90027 12.4186 5.24719 12.5029 5.57956C8.41078 5.39031 4.78287 3.58068 2.35444 0.831733C1.9306 1.50256 1.68782 2.28304 1.68782 3.11596C1.68782 4.6927 2.55669 6.08333 3.87819 6.89853C3.07113 6.87525 2.31184 6.67074 1.64799 6.33014C1.64705 6.34929 1.64704 6.36817 1.64704 6.38718C1.64704 8.58925 3.34442 10.4254 5.59659 10.8432C5.1838 10.947 4.74892 11.002 4.29984 11.002C3.98226 11.002 3.67434 10.9742 3.3732 10.921C4.00016 12.7262 5.81814 14.0402 7.97304 14.0769C6.28658 15.2959 4.16394 16.022 1.857 16.022C1.45986 16.022 1.06762 16.0004 0.682129 15.9587C2.86196 17.248 5.44964 18 8.23044 18C17.2865 18 22.2382 11.076 22.2382 5.07064C22.2382 4.87371 22.2333 4.67813 22.2243 4.48326C23.1859 3.84206 24.0205 3.04194 24.681 2.13049" fill="#485C6C"/>
</svg>
